<svg width="20" height="20" viewBox="0 0 20 20" fill="none" xmlns="http://www.w3.org/2000/svg">
<path d="M18.3333 14.1667C18.3333 14.6087 18.1577 15.0326 17.8452 15.3452C17.5326 15.6577 17.1087 15.8333 16.6667 15.8333H5.68999C5.248 15.8334 4.82414 16.0091 4.51166 16.3217L2.67666 18.1567C2.59391 18.2394 2.48849 18.2957 2.37373 18.3186C2.25897 18.3414 2.14002 18.3297 2.03191 18.2849C1.92381 18.2401 1.83141 18.1643 1.76639 18.067C1.70138 17.9697 1.66667 17.8553 1.66666 17.7383V4.16667C1.66666 3.72464 1.84225 3.30072 2.15481 2.98816C2.46737 2.67559 2.8913 2.5 3.33332 2.5H16.6667C17.1087 2.5 17.5326 2.67559 17.8452 2.98816C18.1577 3.30072 18.3333 3.72464 18.3333 4.16667V14.1667Z" stroke="#4A5565" stroke-width="1.66667" stroke-linecap="round" stroke-linejoin="round"/>
</svg>
