<svg width="36" height="32" viewBox="0 0 36 32" fill="none" xmlns="http://www.w3.org/2000/svg">
<path d="M16.6667 15.3333V19.3333" stroke="#E7000B" stroke-width="1.33333" stroke-linecap="round" stroke-linejoin="round"/>
<path d="M19.3333 15.3333V19.3333" stroke="#E7000B" stroke-width="1.33333" stroke-linecap="round" stroke-linejoin="round"/>
<path d="M22.6667 12V21.3333C22.6667 21.687 22.5262 22.0261 22.2762 22.2761C22.0261 22.5262 21.687 22.6667 21.3333 22.6667H14.6667C14.3131 22.6667 13.9739 22.5262 13.7239 22.2761C13.4738 22.0261 13.3333 21.687 13.3333 21.3333V12" stroke="#E7000B" stroke-width="1.33333" stroke-linecap="round" stroke-linejoin="round"/>
<path d="M12 12H24" stroke="#E7000B" stroke-width="1.33333" stroke-linecap="round" stroke-linejoin="round"/>
<path d="M15.3333 12V10.6667C15.3333 10.3131 15.4738 9.97392 15.7239 9.72387C15.9739 9.47382 16.3131 9.33334 16.6667 9.33334H19.3333C19.687 9.33334 20.0261 9.47382 20.2762 9.72387C20.5262 9.97392 20.6667 10.3131 20.6667 10.6667V12" stroke="#E7000B" stroke-width="1.33333" stroke-linecap="round" stroke-linejoin="round"/>
</svg>
